<?xml version="1.0" standalone="no"?>
<!DOCTYPE svg PUBLIC "-//W3C//DTD SVG 1.1//EN" "http://www.w3.org/Graphics/SVG/1.1/DTD/svg11.dtd">
<svg xmlns="http://www.w3.org/2000/svg" xmlns:xlink="http://www.w3.org/1999/xlink" width="375" zoomAndPan="magnify" viewBox="0 0 375 374.999991" height="375" preserveAspectRatio="xMidYMid meet" version="1.0"><defs><clipPath id="a104d74b5a"><path d="M 48.421875 78.292969 L 278.671875 78.292969 L 278.671875 296.542969 L 48.421875 296.542969 Z M 48.421875 78.292969 " clip-rule="nonzero"/></clipPath><clipPath id="159a8ad5cc"><path d="M 42.722656 83.222656 L 272.972656 83.222656 L 272.972656 301.472656 L 42.722656 301.472656 Z M 42.722656 83.222656 " clip-rule="nonzero"/></clipPath><clipPath id="c288ead842"><path d="M 111.660156 173 L 215.910156 173 L 215.910156 259.953125 L 111.660156 259.953125 Z M 111.660156 173 " clip-rule="nonzero"/></clipPath><clipPath id="81a742553b"><path d="M 105.960938 176.851562 L 210 176.851562 L 210 263.851562 L 105.960938 263.851562 Z M 105.960938 176.851562 " clip-rule="nonzero"/></clipPath></defs><g clip-path="url(#a104d74b5a)"><path fill="#00bf63" d="M 272.679688 284.835938 L 256.421875 253.988281 L 251.894531 245.328125 L 226.175781 245.328125 L 230.707031 253.988281 L 240.101562 271.84375 L 87.199219 271.84375 L 96.59375 253.988281 L 137.300781 176.90625 L 153.289062 146.65625 L 163.683594 127.070312 L 176.207031 150.789062 L 189.066406 126.46875 L 163.683594 78.367188 L 140.496094 122.273438 L 124.507812 152.519531 L 70.941406 253.988281 L 54.617188 284.835938 L 48.421875 296.628906 L 278.941406 296.628906 Z M 272.679688 284.835938 " fill-opacity="1" fill-rule="nonzero"/></g><g clip-path="url(#159a8ad5cc)"><path fill="#000000" d="M 266.980469 289.769531 L 250.726562 258.921875 L 246.195312 250.261719 L 220.476562 250.261719 L 225.007812 258.921875 L 234.402344 276.777344 L 81.5 276.777344 L 90.894531 258.921875 L 131.601562 181.835938 L 147.589844 151.589844 L 157.984375 132.003906 L 170.507812 155.71875 L 183.367188 131.402344 L 157.984375 83.300781 L 134.796875 127.207031 L 118.808594 157.453125 L 65.242188 258.921875 L 48.921875 289.769531 L 42.722656 301.558594 L 273.242188 301.558594 Z M 266.980469 289.769531 " fill-opacity="1" fill-rule="nonzero"/></g><g clip-path="url(#c288ead842)"><path fill="#7ed957" d="M 152.285156 247.851562 C 141.179688 247.851562 130.210938 250.425781 120.257812 255.367188 L 111.660156 259.632812 L 151.980469 173.097656 L 152.523438 173.097656 L 192.914062 259.632812 L 184.3125 255.367188 C 174.324219 250.425781 163.390625 247.851562 152.285156 247.851562 Z M 162.578125 233.394531 L 152.285156 210.8125 L 141.960938 233.394531 Z M 175.003906 173.097656 L 157.601562 173.097656 L 198.296875 259.632812 L 215.699219 259.632812 Z M 175.003906 173.097656 " fill-opacity="1" fill-rule="nonzero"/></g><g clip-path="url(#81a742553b)"><path fill="#000000" d="M 146.585938 251.746094 C 135.480469 251.746094 124.511719 254.320312 114.558594 259.265625 L 105.960938 263.53125 L 146.28125 176.996094 L 146.824219 176.996094 L 187.214844 263.53125 L 178.613281 259.265625 C 168.628906 254.320312 157.691406 251.746094 146.585938 251.746094 Z M 156.878906 237.292969 L 146.585938 214.710938 L 136.261719 237.292969 Z M 169.304688 176.996094 L 151.902344 176.996094 L 192.597656 263.53125 L 210 263.53125 Z M 169.304688 176.996094 " fill-opacity="1" fill-rule="nonzero"/></g></svg>